# Blender 4.0.1
# www.blender.org
mtllib desk.mtl
o Cube
v -0.872247 0.712669 1.876173
v -0.872247 0.959331 1.876173
v -0.872247 0.712669 -1.331294
v -0.872247 0.959331 -1.331294
v 0.872247 0.712669 1.876173
v 0.872247 0.959331 1.876173
v 0.872247 0.712669 -1.331294
v 0.872247 0.959331 -1.331294
v -0.872247 -0.959587 1.876669
v -0.872247 -0.959587 2.123331
v -0.872247 0.959587 1.876669
v -0.872247 0.959587 2.123331
v 0.872247 -0.959587 1.876669
v 0.872247 -0.959587 2.123331
v 0.872247 0.959587 1.876669
v 0.872247 0.959587 2.123331
v -0.872247 -0.959587 -1.576575
v -0.872247 -0.959587 -1.329914
v -0.872247 0.959587 -1.576575
v -0.872247 0.959587 -1.329914
v 0.872247 -0.959587 -1.576575
v 0.872247 -0.959587 -1.329914
v 0.872247 0.959587 -1.576575
v 0.872247 0.959587 -1.329914
v -0.872247 0.712669 4.199971
v -0.872247 0.959331 4.199971
v -0.872247 0.712669 2.118955
v -0.872247 0.959331 2.118955
v 0.872247 0.712669 4.199971
v 0.872247 0.959331 4.199971
v 0.872247 0.712669 2.118955
v 0.872247 0.959331 2.118955
v -0.872247 -0.959587 4.201673
v -0.872247 -0.959587 4.448334
v -0.872247 0.959587 4.201673
v -0.872247 0.959587 4.448334
v 0.872247 -0.959587 4.201673
v 0.872247 -0.959587 4.448334
v 0.872247 0.959587 4.201673
v 0.872247 0.959587 4.448334
v -0.872247 -0.954188 4.199971
v -0.872247 -0.707527 4.199971
v -0.872247 -0.954188 2.118955
v -0.872247 -0.707527 2.118955
v 0.872247 -0.954188 4.199971
v 0.872247 -0.707527 4.199971
v 0.872247 -0.954188 2.118955
v 0.872247 -0.707527 2.118955
v 0.695958 -0.755062 4.302128
v 0.871202 -0.755062 4.302128
v 0.695958 0.755062 4.302128
v 0.871202 0.755062 4.302128
v 0.695958 -0.755062 2.025964
v 0.871202 -0.755062 2.025964
v 0.695958 0.755062 2.025964
v 0.871202 0.755062 2.025964
vn -1.0000 -0.0000 -0.0000
vn -0.0000 -0.0000 -1.0000
vn 1.0000 -0.0000 -0.0000
vn -0.0000 -0.0000 1.0000
vn -0.0000 -1.0000 -0.0000
vn -0.0000 1.0000 -0.0000
vt 0.375000 0.000000
vt 0.625000 0.000000
vt 0.625000 0.250000
vt 0.375000 0.250000
vt 0.625000 0.500000
vt 0.375000 0.500000
vt 0.625000 0.750000
vt 0.375000 0.750000
vt 0.625000 1.000000
vt 0.375000 1.000000
vt 0.125000 0.500000
vt 0.125000 0.750000
vt 0.875000 0.500000
vt 0.875000 0.750000
s 0
f 1/1/1 2/2/1 4/3/1 3/4/1
f 3/4/2 4/3/2 8/5/2 7/6/2
f 7/6/3 8/5/3 6/7/3 5/8/3
f 5/8/4 6/7/4 2/9/4 1/10/4
f 3/11/5 7/6/5 5/8/5 1/12/5
f 8/5/6 4/13/6 2/14/6 6/7/6
f 9/1/1 10/2/1 12/3/1 11/4/1
f 11/4/6 12/3/6 16/5/6 15/6/6
f 15/6/3 16/5/3 14/7/3 13/8/3
f 13/8/5 14/7/5 10/9/5 9/10/5
f 11/11/2 15/6/2 13/8/2 9/12/2
f 16/5/4 12/13/4 10/14/4 14/7/4
f 17/1/1 18/2/1 20/3/1 19/4/1
f 19/4/6 20/3/6 24/5/6 23/6/6
f 23/6/3 24/5/3 22/7/3 21/8/3
f 21/8/5 22/7/5 18/9/5 17/10/5
f 19/11/2 23/6/2 21/8/2 17/12/2
f 24/5/4 20/13/4 18/14/4 22/7/4
f 25/1/1 26/2/1 28/3/1 27/4/1
f 27/4/2 28/3/2 32/5/2 31/6/2
f 31/6/3 32/5/3 30/7/3 29/8/3
f 29/8/4 30/7/4 26/9/4 25/10/4
f 27/11/5 31/6/5 29/8/5 25/12/5
f 32/5/6 28/13/6 26/14/6 30/7/6
f 33/1/1 34/2/1 36/3/1 35/4/1
f 35/4/6 36/3/6 40/5/6 39/6/6
f 39/6/3 40/5/3 38/7/3 37/8/3
f 37/8/5 38/7/5 34/9/5 33/10/5
f 35/11/2 39/6/2 37/8/2 33/12/2
f 40/5/4 36/13/4 34/14/4 38/7/4
f 41/1/1 42/2/1 44/3/1 43/4/1
f 43/4/2 44/3/2 48/5/2 47/6/2
f 47/6/3 48/5/3 46/7/3 45/8/3
f 45/8/4 46/7/4 42/9/4 41/10/4
f 43/11/5 47/6/5 45/8/5 41/12/5
f 48/5/6 44/13/6 42/14/6 46/7/6
f 49/1/4 50/2/4 52/3/4 51/4/4
f 51/4/6 52/3/6 56/5/6 55/6/6
f 55/6/2 56/5/2 54/7/2 53/8/2
f 53/8/5 54/7/5 50/9/5 49/10/5
f 51/11/1 55/6/1 53/8/1 49/12/1
f 56/5/3 52/13/3 50/14/3 54/7/3
