# Blender 3.4.1
# www.blender.org
mtllib letter.mtl
o Cube
v 0.798642 0.047878 -1.000000
v 0.751409 -0.047878 -1.000000
v 0.798642 0.047878 1.000000
v 0.751409 -0.047878 1.000000
v -0.798642 0.047878 -1.000000
v -0.751409 -0.047878 -1.000000
v -0.798642 0.047878 1.000000
v -0.751409 -0.047878 1.000000
v -0.751409 -0.047878 0.000000
v 0.751409 0.047878 0.000000
v -0.751409 0.047878 0.000000
v 0.751409 -0.047878 0.000000
v 0.000000 -0.047878 -1.000000
v 0.000000 0.047878 1.000000
v 0.000000 -0.047878 1.000000
v 0.000000 0.047878 -1.000000
v 0.000000 -0.047878 0.000000
v 0.000000 0.047878 0.000000
v -0.751409 0.047878 -0.500000
v 0.751409 -0.047878 -0.500000
v -0.751409 -0.047878 -0.500000
v 0.751409 0.047878 -0.500000
v 0.000000 0.047878 -0.500000
v 0.000000 -0.047878 -0.500000
v -0.751409 -0.047878 0.500000
v 0.751409 0.047878 0.500000
v -0.751409 0.047878 0.500000
v 0.751409 -0.047878 0.500000
v 0.000000 -0.047878 0.500000
v 0.000000 0.047878 0.500000
v -0.375705 -0.047878 -1.000000
v -0.375705 0.047878 1.000000
v -0.375705 -0.047878 0.000000
v -0.375705 -0.047878 1.000000
v -0.375705 0.047878 -1.000000
v -0.375705 0.024452 0.000000
v -0.375705 -0.047878 -0.500000
v -0.375705 0.063031 -0.500000
v -0.375705 -0.047878 0.500000
v -0.375705 0.063031 0.500000
v 0.375705 -0.047878 1.000000
v 0.375705 0.047878 -1.000000
v 0.375705 0.024452 0.000000
v 0.375705 -0.047878 -1.000000
v 0.375705 0.047878 1.000000
v 0.375705 -0.047878 0.000000
v 0.375705 0.063031 -0.500000
v 0.375705 -0.047878 -0.500000
v 0.375705 0.063031 0.500000
v 0.375705 -0.047878 0.500000
vn 0.0003 1.0000 -0.0076
vn -0.0788 0.9968 -0.0107
vn -0.0949 0.9932 0.0668
vn 0.0005 0.9978 0.0668
vn -0.0000 -0.9989 0.0478
vn -0.0624 -0.9970 0.0450
vn -0.0630 -0.9980 0.0015
vn -0.0788 0.9968 0.0107
vn -0.0949 0.9932 -0.0668
vn -0.0624 -0.9970 -0.0450
vn -0.0000 -1.0000 -0.0000
vn 0.0630 -0.9980 -0.0015
vn 0.0624 -0.9970 0.0450
vn 0.0788 0.9968 -0.0107
vn 0.0949 0.9932 0.0668
vn -0.0000 -0.9989 -0.0478
vn -0.0005 0.9978 -0.0668
vn 0.0949 0.9932 -0.0668
vn 0.0624 -0.9970 -0.0450
vn 0.0630 -0.9980 0.0015
vn 0.0788 0.9968 0.0107
vn 0.0714 0.9974 -0.0000
vn 0.0636 -0.9980 -0.0000
vn -0.0630 -0.9980 -0.0015
vn -0.0714 0.9974 -0.0000
vn -0.0636 -0.9980 -0.0000
vn 0.0003 1.0000 0.0076
vn -0.0000 1.0000 -0.0000
vn -0.0003 1.0000 0.0076
vn -0.0000 1.0000 0.0095
vn 0.0005 0.9978 -0.0668
vn -0.0000 0.9977 -0.0675
vn -0.0005 0.9978 0.0668
vn -0.0000 0.9977 0.0675
vn -0.0003 1.0000 -0.0076
vn -0.0000 1.0000 -0.0095
vt 0.625000 0.500000
vt 0.375000 0.500000
vt 0.625000 0.750000
vt 0.375000 0.750000
vt 0.875000 0.500000
vt 0.625000 0.250000
vt 0.125000 0.500000
vt 0.375000 0.250000
vt 0.875000 0.750000
vt 0.625000 1.000000
vt 0.625000 0.000000
vt 0.375000 1.000000
vt 0.375000 0.000000
vt 0.125000 0.750000
vt 0.375000 0.125000
vt 0.125000 0.625000
vt 0.625000 0.625000
vt 0.625000 0.125000
vt 0.875000 0.625000
vt 0.375000 0.625000
vt 0.250000 0.500000
vt 0.375000 0.375000
vt 0.625000 0.875000
vt 0.750000 0.750000
vt 0.375000 0.875000
vt 0.250000 0.750000
vt 0.750000 0.500000
vt 0.625000 0.375000
vt 0.250000 0.625000
vt 0.750000 0.625000
vt 0.875000 0.562500
vt 0.625000 0.187500
vt 0.375000 0.562500
vt 0.375000 0.187500
vt 0.125000 0.562500
vt 0.625000 0.562500
vt 0.750000 0.562500
vt 0.250000 0.562500
vt 0.375000 0.062500
vt 0.125000 0.687500
vt 0.625000 0.687500
vt 0.625000 0.062500
vt 0.875000 0.687500
vt 0.375000 0.687500
vt 0.250000 0.687500
vt 0.750000 0.687500
vt 0.187500 0.500000
vt 0.375000 0.312500
vt 0.625000 0.937500
vt 0.812500 0.750000
vt 0.187500 0.625000
vt 0.187500 0.750000
vt 0.375000 0.937500
vt 0.812500 0.500000
vt 0.625000 0.312500
vt 0.812500 0.625000
vt 0.187500 0.562500
vt 0.812500 0.562500
vt 0.187500 0.687500
vt 0.812500 0.687500
vt 0.375000 0.812500
vt 0.312500 0.750000
vt 0.687500 0.500000
vt 0.625000 0.437500
vt 0.687500 0.625000
vt 0.312500 0.500000
vt 0.375000 0.437500
vt 0.687500 0.750000
vt 0.625000 0.812500
vt 0.312500 0.625000
vt 0.687500 0.562500
vt 0.312500 0.562500
vt 0.687500 0.687500
vt 0.312500 0.687500
s 1
usemtl Material
f 40/60/1 27/43/2 7/9/3 32/50/4
f 34/53/5 32/49/4 7/10/3 8/12/6
f 21/34/7 19/32/8 5/6/9 6/8/10
f 50/74/11 28/44/12 4/4/13 41/62/5
f 28/44/12 26/41/14 3/3/15 4/4/13
f 44/67/16 42/64/17 1/1/18 2/2/19
f 20/33/20 22/36/21 10/17/22 12/20/23
f 48/72/11 20/33/20 12/20/23 46/70/11
f 25/39/24 27/42/2 11/18/25 9/15/26
f 38/58/27 19/31/8 11/19/25 36/56/28
f 47/71/29 23/37/30 18/30/28 43/65/28
f 37/57/11 24/38/11 17/29/11 33/51/11
f 31/48/16 35/55/31 16/28/32 13/22/16
f 39/59/11 29/45/11 15/26/5 34/52/5
f 41/61/5 45/69/33 14/23/34 15/25/5
f 49/73/35 30/46/36 14/24/34 45/68/33
f 31/47/16 13/21/16 24/38/11 37/57/11
f 42/63/17 16/27/32 23/37/30 47/71/29
f 35/54/31 5/5/9 19/31/8 38/58/27
f 44/66/16 2/2/19 20/33/20 48/72/11
f 2/2/19 1/1/18 22/36/21 20/33/20
f 9/15/26 11/18/25 19/32/8 21/34/7
f 43/65/28 18/30/28 30/46/36 49/73/35
f 33/51/11 17/29/11 29/45/11 39/59/11
f 8/13/6 7/11/3 27/42/2 25/39/24
f 12/20/23 10/17/22 26/41/14 28/44/12
f 46/70/11 12/20/23 28/44/12 50/74/11
f 36/56/28 11/19/25 27/43/2 40/60/1
f 18/30/28 36/56/28 40/60/1 30/46/36
f 9/16/26 33/51/11 39/59/11 25/40/24
f 16/27/32 35/54/31 38/58/27 23/37/30
f 6/7/10 31/47/16 37/57/11 21/35/7
f 25/40/24 39/59/11 34/52/5 8/14/6
f 6/8/10 5/6/9 35/55/31 31/48/16
f 21/35/7 37/57/11 33/51/11 9/16/26
f 23/37/30 38/58/27 36/56/28 18/30/28
f 15/25/5 14/23/34 32/49/4 34/53/5
f 30/46/36 40/60/1 32/50/4 14/24/34
f 17/29/11 46/70/11 50/74/11 29/45/11
f 10/17/22 43/65/28 49/73/35 26/41/14
f 13/21/16 44/66/16 48/72/11 24/38/11
f 1/1/18 42/63/17 47/71/29 22/36/21
f 26/41/14 49/73/35 45/68/33 3/3/15
f 4/4/13 3/3/15 45/69/33 41/61/5
f 22/36/21 47/71/29 43/65/28 10/17/22
f 24/38/11 48/72/11 46/70/11 17/29/11
f 13/22/16 16/28/32 42/64/17 44/67/16
f 29/45/11 50/74/11 41/62/5 15/26/5
