# Blender 4.0.1
# www.blender.org
mtllib remote.mtl
o Cube
v -1.000000 -0.206155 2.890700
v -1.000000 0.206155 3.000000
v -1.000000 -0.206155 -2.890700
v -1.000000 0.206155 -3.000000
v 1.000000 -0.206155 2.890700
v 1.000000 0.206155 3.000000
v 1.000000 -0.206155 -2.890700
v 1.000000 0.206155 -3.000000
v -1.000000 -0.206155 0.000000
v -1.000000 0.206155 0.000000
v 1.000000 -0.206155 0.000000
v 1.000000 0.206155 0.000000
v -1.000000 -0.206155 1.500000
v 1.000000 0.206155 1.500000
v -1.000000 0.206155 1.500000
v 1.000000 -0.206155 1.500000
v -1.000000 0.206155 -1.500000
v 1.000000 -0.206155 -1.500000
v -1.000000 -0.206155 -1.500000
v 1.000000 0.206155 -1.500000
v 0.000000 -0.206155 -2.890700
v 0.000000 0.206155 -3.000000
v 0.000000 -0.206155 2.890700
v 0.000000 0.206155 3.000000
v 0.000000 0.206155 0.000000
v 0.000000 -0.206155 0.000000
v 0.000000 0.206155 1.500000
v 0.000000 -0.206155 1.500000
v 0.000000 -0.206155 -1.500000
v 0.000000 0.206155 -1.500000
vn -1.0000 -0.0000 -0.0000
vn -0.0000 -0.2562 -0.9666
vn 1.0000 -0.0000 -0.0000
vn -0.0000 -0.2562 0.9666
vn -0.0000 -1.0000 -0.0000
vn -0.0000 1.0000 -0.0000
vt 0.375000 0.187500
vt 0.625000 0.187500
vt 0.625000 0.250000
vt 0.375000 0.250000
vt 0.375000 0.375000
vt 0.625000 0.375000
vt 0.625000 0.500000
vt 0.375000 0.500000
vt 0.375000 0.687500
vt 0.625000 0.687500
vt 0.625000 0.750000
vt 0.375000 0.750000
vt 0.375000 0.875000
vt 0.625000 0.875000
vt 0.625000 1.000000
vt 0.375000 1.000000
vt 0.250000 0.687500
vt 0.250000 0.750000
vt 0.750000 0.687500
vt 0.875000 0.687500
vt 0.875000 0.750000
vt 0.750000 0.750000
vt 0.750000 0.562500
vt 0.875000 0.562500
vt 0.875000 0.625000
vt 0.750000 0.625000
vt 0.250000 0.562500
vt 0.375000 0.562500
vt 0.375000 0.625000
vt 0.250000 0.625000
vt 0.625000 0.562500
vt 0.625000 0.625000
vt 0.375000 0.062500
vt 0.625000 0.062500
vt 0.625000 0.125000
vt 0.375000 0.125000
vt 0.375000 0.000000
vt 0.625000 0.000000
vt 0.250000 0.500000
vt 0.750000 0.500000
vt 0.875000 0.500000
vt 0.125000 0.500000
vt 0.125000 0.562500
vt 0.125000 0.625000
vt 0.125000 0.687500
vt 0.125000 0.750000
s 1
usemtl remote
f 19/1/1 17/2/1 4/3/1 3/4/1
f 21/5/2 22/6/2 8/7/2 7/8/2
f 16/9/3 14/10/3 6/11/3 5/12/3
f 23/13/4 24/14/4 2/15/4 1/16/4
f 28/17/5 16/9/5 5/12/5 23/18/5
f 27/19/6 15/20/6 2/21/6 24/22/6
f 30/23/6 17/24/6 10/25/6 25/26/6
f 29/27/5 18/28/5 11/29/5 26/30/5
f 18/28/3 20/31/3 12/32/3 11/29/3
f 13/33/1 15/34/1 10/35/1 9/36/1
f 1/37/1 2/38/1 15/34/1 13/33/1
f 25/26/6 10/25/6 15/20/6 27/19/6
f 26/30/5 11/29/5 16/9/5 28/17/5
f 11/29/3 12/32/3 14/10/3 16/9/3
f 7/8/3 8/7/3 20/31/3 18/28/3
f 21/39/5 7/8/5 18/28/5 29/27/5
f 22/40/6 4/41/6 17/24/6 30/23/6
f 9/36/1 10/35/1 17/2/1 19/1/1
f 8/7/6 22/40/6 30/23/6 20/31/6
f 3/42/5 21/39/5 29/27/5 19/43/5
f 9/44/5 26/30/5 28/17/5 13/45/5
f 12/32/6 25/26/6 27/19/6 14/10/6
f 19/43/5 29/27/5 26/30/5 9/44/5
f 20/31/6 30/23/6 25/26/6 12/32/6
f 14/10/6 27/19/6 24/22/6 6/11/6
f 13/45/5 28/17/5 23/18/5 1/46/5
f 5/12/4 6/11/4 24/14/4 23/13/4
f 3/4/2 4/3/2 22/6/2 21/5/2
